<svg width="66" height="54" viewBox="0 0 66 54" fill="none" xmlns="http://www.w3.org/2000/svg">
<path d="M50.793 43.8203H54.4116H65.9982" stroke="#191D28" stroke-width="2" stroke-miterlimit="10"/>
<path d="M45.962 43.8203H37.1842H33.1581H29.1856H20.3594" stroke="#191D28" stroke-width="2" stroke-miterlimit="10"/>
<path d="M0 43.8203H11.9584H15.5261" stroke="#191D28" stroke-width="2" stroke-miterlimit="10"/>
<path d="M33.1562 21.6484V32.163V43.8184" stroke="#191D28" stroke-width="2" stroke-miterlimit="10"/>
<path d="M37.3578 36.3378V42.6277C37.3578 43.0304 37.2995 43.4309 37.1847 43.8169H29.1835C29.0678 43.4311 29.0087 43.0305 29.0078 42.6277V36.3378C29.0105 35.2361 29.4476 34.1798 30.2242 33.3984C31.0009 32.617 32.0544 32.1734 33.1561 32.1641H33.1816C34.2883 32.1654 35.3494 32.6055 36.1322 33.3879C36.9151 34.1702 37.3558 35.231 37.3578 36.3378Z" stroke="#191D28" stroke-width="2" stroke-miterlimit="10"/>
<path d="M44.3711 41.0696L43.5613 39.6639L42.232 37.3721L41.165 35.4978L40.0904 33.644L38.7458 31.3165L37.6941 29.4881L36.6068 27.6087L35.2902 25.3474L34.2029 23.4656L33.1512 21.6397L32.0994 23.4579L31.0095 25.3398L29.7032 27.6113L28.6133 29.4957L27.5616 31.319L26.2144 33.6516L25.1449 35.4978L24.0754 37.3517L22.7512 39.6436L21.9389 41.0492L20.3549 43.7944H45.9576L44.3711 41.0696ZM33.1664 2.00101C22.0025 1.89915 12.9115 9.54632 9.3871 17.0611C6.87623 22.4088 6.87114 28.2988 6.87114 28.2988C6.86072 33.8796 8.6375 39.317 11.9412 43.8147H15.5064L17.1107 41.039L17.9026 39.6639L19.5069 36.8882L20.304 35.508L21.646 33.1805L22.1349 32.33L23.7876 29.4728L24.8572 27.6189L26.1839 25.3271L26.492 24.7898L27.256 23.4732L28.5853 21.1813L30.7269 17.4736L33.141 13.2922L35.5576 17.4736L37.6992 21.1813L39.026 23.4732L39.8052 24.8178L40.0955 25.3271L41.4248 27.6189L42.4918 29.4728L43.5613 31.3266L44.6308 33.1805L45.9856 35.4978L46.7775 36.878L48.3818 39.6537L49.1789 41.0289L50.7807 43.8046H54.3993C57.7043 39.3106 59.4854 33.8773 59.4821 28.2988C59.4821 19.9998 50.0982 2.15889 33.1792 2.00101H33.1664Z" stroke="#191D28" stroke-width="2" stroke-miterlimit="10"/>
<path d="M50.794 43.8163H45.9633L44.3768 41.0686L43.567 39.6629L42.2377 37.3609L41.1707 35.507L40.0961 33.6532L38.7515 31.3257L37.6998 29.4973L36.6125 27.6179L35.3036 25.3465L34.2162 23.4646L33.1645 21.6387L33.1594 21.6464L32.1077 23.4646L31.0178 25.3465L29.7114 27.6179L28.6215 29.5024L27.5698 31.3257L26.2227 33.6583L25.1506 35.507L24.0811 37.3609L22.7569 39.6629L21.9446 41.0686L20.3606 43.8163H15.5273L17.1317 41.0381L17.9236 39.6629L19.5279 36.8872L20.325 35.507L21.667 33.1795L22.1559 32.329L23.8086 29.4718L24.8781 27.6179L26.2049 25.3184L26.513 24.7811L27.2744 23.4646L28.6037 21.1625L30.7453 17.4548L33.1594 13.2734L35.5786 17.4548L37.7177 21.1625L39.0444 23.4646L39.8236 24.8091L40.1139 25.3159L41.4432 27.6179L42.5102 29.4718L43.5797 31.3257L44.6518 33.1795L45.9989 35.507L46.7909 36.8872L48.3952 39.6629L49.1922 41.0381L50.794 43.8163Z" stroke="#191D28" stroke-width="2" stroke-miterlimit="10"/>
<path d="M9.24915 22.093C7.18138 16.6078 17.0287 5.19434 23.0767 6.77827C26.0663 7.56005 28.7376 11.6752 27.7317 14.0995C27.1919 15.3982 25.4984 16.4448 23.996 16.3099C22.1778 16.1494 21.8926 14.3745 20.2603 14.2523C18.414 14.1173 16.1171 16.1927 15.7402 18.4209C15.2946 21.054 17.7188 22.5998 16.8709 24.2092C16.2648 25.3576 14.4033 25.6403 13.1657 25.4391C11.1845 25.1157 9.73298 23.379 9.24915 22.093Z" stroke="#191D28" stroke-width="2" stroke-miterlimit="10"/>
<path d="M58.2508 32.3521C57.0208 35.8918 53.853 39.9916 51.2733 39.4416C50.1096 39.1869 49.0833 38.0054 48.7625 36.8136C48.136 34.4988 50.4508 33.2306 49.9033 30.8853C49.4704 29.0213 47.4867 27.5748 46.4732 27.8932C45.8289 28.102 45.9639 28.9118 44.986 30.0653C44.5751 30.5494 44.1025 30.9775 43.5803 31.3386L42.5108 29.4847L41.4438 27.6309L40.1145 25.339L39.8242 24.8297C39.9734 24.2059 40.2519 23.6203 40.6416 23.1108C42.3504 20.9234 45.8416 21.0329 46.4732 21.0507C48.9764 21.1296 49.5774 22.2501 51.7368 21.9674C54.2833 21.6262 54.7926 19.8716 56.0786 20.1365C58.3807 20.5974 60.1046 27.0197 58.2508 32.3521Z" stroke="#191D28" stroke-width="2" stroke-miterlimit="10"/>
<path d="M8.94002 37.2615C7.42739 35.0333 7.35354 31.4224 8.82034 30.6024C10.4908 29.6704 14.6773 32.0641 14.7792 35.1021C14.8403 36.9381 13.4142 39.1409 11.7234 39.202C10.2922 39.2555 9.25324 37.7225 8.94002 37.2615Z" stroke="#191D28" stroke-width="2" stroke-miterlimit="10"/>
<path d="M26.5134 24.7824L26.2052 25.3121L24.8785 27.604L23.809 29.4578L22.1563 32.315C22.1104 32.287 22.0671 32.259 22.0264 32.2284C20.8575 31.3906 20.9747 29.5419 21.0078 28.9867C21.1784 26.3001 23.3302 23.4022 24.9931 23.6518C25.5329 23.7485 26.0652 24.1687 26.5134 24.7824Z" stroke="#191D28" stroke-width="2" stroke-miterlimit="10"/>
<path d="M46.6347 16.9996C44.6255 14.3206 45.7052 9.28618 47.6202 8.77433C49.4639 8.27776 52.9679 11.7436 52.4993 14.9547C52.2676 16.5412 51.0045 18.4944 49.3416 18.5759C47.8697 18.6472 46.7977 17.2186 46.6347 16.9996Z" stroke="#191D28" stroke-width="2" stroke-miterlimit="10"/>
<path d="M31.749 3.75806C31.4765 5.05933 32.5715 6.61779 33.8829 7.03797C36.0169 7.71789 38.5329 5.31143 38.3037 3.98215C38.0312 2.42369 33.7709 1.32614 32.2812 2.76237C32.01 3.03491 31.8249 3.38116 31.749 3.75806Z" stroke="#191D28" stroke-width="2" stroke-miterlimit="10"/>
<path d="M6.34375 46.7031H7.25795V53.212H6.34375V46.7031ZM6.91163 49.573H10.5251V50.4414H6.91163V49.573ZM10.0413 46.7031H10.9529V53.212H10.0413V46.7031Z" fill="#191D28"/>
<path d="M13.5932 52.9266C13.4453 52.79 13.3302 52.6216 13.2565 52.4342C13.1829 52.2468 13.1526 52.0451 13.168 51.8443C13.1539 51.654 13.1815 51.463 13.2488 51.2844C13.3161 51.1059 13.4215 50.9441 13.5576 50.8104C13.8948 50.5565 14.3131 50.4342 14.7341 50.4667H16.0557L16.1194 51.2H14.7392C14.547 51.1841 14.356 51.2415 14.2044 51.3605C14.1421 51.4238 14.0942 51.4998 14.0638 51.5833C14.0335 51.6667 14.0215 51.7558 14.0287 51.8443C14.0206 51.9444 14.0378 52.0449 14.0788 52.1366C14.1197 52.2282 14.183 52.3081 14.263 52.3689C14.4773 52.498 14.7264 52.5576 14.976 52.5395C15.2413 52.5524 15.5067 52.5144 15.7578 52.4275C15.8315 52.4034 15.8957 52.3568 15.9414 52.2942C15.9871 52.2315 16.012 52.1561 16.0124 52.0786L16.1066 52.7305C16.0291 52.8529 15.9278 52.9586 15.8087 53.0412C15.6832 53.1241 15.5446 53.1852 15.3987 53.222C15.228 53.2646 15.0526 53.2852 14.8767 53.2831C14.4205 53.3164 13.9669 53.1904 13.5932 52.9266ZM16.015 50.2706C16.0217 50.1412 16.0027 50.0117 15.9589 49.8898C15.9152 49.7678 15.8477 49.6557 15.7603 49.5601C15.6693 49.472 15.5609 49.4039 15.4421 49.3601C15.3233 49.3162 15.1966 49.2976 15.0702 49.3054C14.8853 49.3053 14.7015 49.3337 14.5253 49.3895C14.356 49.4414 14.1967 49.5214 14.0541 49.6263L13.3946 49.173C13.5817 48.9531 13.8206 48.7833 14.0898 48.679C14.3952 48.5578 14.7213 48.4972 15.0498 48.5007C15.3913 48.4919 15.7302 48.5616 16.0404 48.7045C16.3052 48.832 16.5241 49.0384 16.6669 49.2953C16.8164 49.5836 16.89 49.9052 16.8808 50.2298V53.2143H16.0124L16.015 50.2706Z" fill="#191D28"/>
<path d="M18.8281 48.5657H20.9214V49.3882H18.8281V48.5657ZM19.5666 52.9228C19.377 52.6555 19.2869 52.3302 19.312 52.0035V47.2109H20.2236V52.0086C20.2193 52.0986 20.2434 52.1876 20.2924 52.2632C20.3147 52.2938 20.3443 52.3183 20.3786 52.3343C20.4129 52.3503 20.4507 52.3574 20.4884 52.3549H20.9264V53.2233H20.3942C20.2426 53.2383 20.0895 53.2191 19.9463 53.1671C19.803 53.1151 19.6733 53.0316 19.5666 52.9228Z" fill="#191D28"/>
<path d="M23.2924 52.9214C23.1445 52.7847 23.0294 52.6164 22.9557 52.429C22.8821 52.2416 22.8518 52.0399 22.8672 51.8391C22.8532 51.6488 22.8808 51.4578 22.948 51.2792C23.0153 51.1007 23.1207 50.9389 23.2568 50.8052C23.5949 50.5511 24.0141 50.4288 24.4358 50.4614H25.7549L25.8186 51.1948H24.4384C24.2464 51.1804 24.0559 51.2376 23.9036 51.3553C23.8413 51.4186 23.7934 51.4945 23.7631 51.578C23.7327 51.6615 23.7207 51.7506 23.7279 51.8391C23.7205 51.9391 23.738 52.0394 23.7789 52.1309C23.8198 52.2225 23.8828 52.3024 23.9622 52.3637C24.1773 52.4931 24.4273 52.5527 24.6778 52.5343C24.9423 52.5473 25.2068 52.5092 25.457 52.4222C25.5311 52.3989 25.5958 52.3524 25.6416 52.2896C25.6874 52.2269 25.712 52.1511 25.7116 52.0734L25.8059 52.7253C25.7298 52.8489 25.6282 52.9548 25.5079 53.036C25.3833 53.1189 25.2455 53.18 25.1005 53.2168C24.9289 53.2594 24.7526 53.2799 24.5759 53.2779C24.1197 53.3111 23.6661 53.1851 23.2924 52.9214ZM25.7142 50.2653C25.7301 50.0059 25.6432 49.7507 25.4723 49.5549C25.3806 49.467 25.2717 49.399 25.1525 49.3552C25.0333 49.3114 24.9064 49.2927 24.7796 49.3002C24.5947 49.3001 24.4109 49.3285 24.2347 49.3843C24.0656 49.4367 23.9065 49.5167 23.7636 49.6211L23.0964 49.1653C23.2834 48.9454 23.5224 48.7756 23.7916 48.6712C24.0971 48.5504 24.4231 48.4899 24.7516 48.493C25.0931 48.4839 25.432 48.5536 25.7422 48.6967C26.007 48.8242 26.2258 49.0306 26.3686 49.2875C26.5181 49.5758 26.5917 49.8974 26.5825 50.2221V53.2066H25.7142V50.2653Z" fill="#191D28"/>
<path d="M33.6598 46.7031H34.5154V53.212H33.6241V48.338L33.67 48.6257L32.0682 52.3055H31.4316L29.8298 48.7123L29.8731 48.3354V53.2095H28.9844V46.7031H29.8375L31.7499 51.0016L33.6598 46.7031Z" fill="#191D28"/>
<path d="M37.1557 52.9214C37.0078 52.7847 36.8926 52.6164 36.819 52.429C36.7453 52.2416 36.7151 52.0399 36.7305 51.8391C36.7164 51.6488 36.744 51.4578 36.8113 51.2792C36.8786 51.1007 36.984 50.9389 37.1201 50.8052C37.4573 50.5512 37.8756 50.429 38.2966 50.4614H39.6258L39.687 51.1948H38.3017C38.1095 51.1789 37.9185 51.2362 37.7669 51.3552C37.7041 51.4183 37.6557 51.4942 37.625 51.5777C37.5942 51.6612 37.5818 51.7504 37.5886 51.8391C37.5811 51.9394 37.5988 52.0399 37.6402 52.1316C37.6815 52.2232 37.7452 52.303 37.8255 52.3637C38.0397 52.4931 38.2889 52.5527 38.5385 52.5343C38.8038 52.547 39.0692 52.509 39.3203 52.4222C39.394 52.3982 39.4582 52.3515 39.5039 52.2889C39.5496 52.2263 39.5745 52.1509 39.5749 52.0734L39.6691 52.7253C39.5916 52.8477 39.4903 52.9533 39.3712 53.0359C39.2457 53.1189 39.1071 53.18 38.9612 53.2168C38.7897 53.2595 38.6134 53.2801 38.4366 53.2779C37.9812 53.3116 37.5282 53.1855 37.1557 52.9214ZM39.5775 50.2653C39.5842 50.136 39.5652 50.0065 39.5214 49.8845C39.4777 49.7626 39.4102 49.6505 39.3228 49.5549C39.2316 49.4671 39.1232 49.3991 39.0044 49.3553C38.8856 49.3115 38.7591 49.2927 38.6327 49.3002C38.4478 49.3001 38.264 49.3285 38.0877 49.3843C37.9183 49.4356 37.759 49.5157 37.6166 49.6211L36.9495 49.1652C37.1365 48.9453 37.3755 48.7756 37.6447 48.6712C37.95 48.55 38.2761 48.4895 38.6047 48.493C38.9453 48.4839 39.2835 48.5536 39.5927 48.6967C39.8578 48.8248 40.0773 49.0309 40.2217 49.2875C40.3712 49.5758 40.4448 49.8974 40.4356 50.222V53.2066H39.5673L39.5775 50.2653Z" fill="#191D28"/>
<path d="M42.3906 48.5657H44.4864V49.3882H42.3906V48.5657ZM43.1317 52.9228C42.942 52.6555 42.8519 52.3302 42.877 52.0035V47.2109H43.7912V52.0086C43.7873 52.0982 43.8104 52.1869 43.8574 52.2632C43.8806 52.2935 43.9108 52.3177 43.9454 52.3337C43.98 52.3496 44.018 52.3569 44.056 52.3549H44.494V53.2233H43.9542C43.8034 53.2375 43.6513 53.2179 43.509 53.1659C43.3667 53.1139 43.2378 53.0309 43.1317 52.9228Z" fill="#191D28"/>
<path d="M46.8549 52.9213C46.707 52.7847 46.5919 52.6164 46.5182 52.4289C46.4446 52.2415 46.4143 52.0398 46.4297 51.839C46.4157 51.6488 46.4433 51.4577 46.5105 51.2792C46.5778 51.1006 46.6832 50.9389 46.8193 50.8052C47.1565 50.5512 47.5748 50.4289 47.9958 50.4614H49.3174L49.3811 51.1948H48.0009C47.8088 51.1789 47.6177 51.2362 47.4661 51.3552C47.4038 51.4185 47.3559 51.4945 47.3255 51.578C47.2952 51.6615 47.2832 51.7505 47.2904 51.839C47.2823 51.9391 47.2995 52.0396 47.3405 52.1313C47.3814 52.223 47.4448 52.3029 47.5247 52.3636C47.739 52.4927 47.9881 52.5523 48.2377 52.5342C48.5031 52.5472 48.7684 52.5091 49.0195 52.4222C49.0932 52.3981 49.1574 52.3515 49.2031 52.2889C49.2488 52.2263 49.2737 52.1509 49.2741 52.0733L49.3683 52.7252C49.2908 52.8477 49.1895 52.9533 49.0704 53.0359C48.9449 53.1188 48.8063 53.1799 48.6604 53.2167C48.4897 53.2593 48.3143 53.2799 48.1384 53.2778C47.6822 53.3111 47.2286 53.1851 46.8549 52.9213ZM49.2767 50.2653C49.2834 50.1359 49.2644 50.0065 49.2207 49.8845C49.1769 49.7625 49.1094 49.6505 49.022 49.5548C48.931 49.4668 48.8226 49.3986 48.7038 49.3548C48.585 49.311 48.4583 49.2924 48.3319 49.3002C48.147 49.3001 47.9632 49.3284 47.787 49.3842C47.6177 49.4361 47.4585 49.5162 47.3159 49.621L46.6487 49.1652C46.8357 48.9453 47.0747 48.7755 47.3439 48.6712C47.6493 48.55 47.9754 48.4894 48.3039 48.4929C48.6453 48.4841 48.9843 48.5538 49.2945 48.6967C49.5593 48.8242 49.7781 49.0306 49.9209 49.2874C50.0704 49.5758 50.1441 49.8974 50.1349 50.222V53.2065H49.2665L49.2767 50.2653Z" fill="#191D28"/>
<path d="M52.0977 48.5657H54.1934V49.3882H52.0977V48.5657ZM52.8387 52.9228C52.6491 52.6555 52.559 52.3302 52.584 52.0035V47.2109H53.4957V52.0086C53.4914 52.0986 53.5154 52.1876 53.5645 52.2632C53.5867 52.2938 53.6164 52.3183 53.6507 52.3343C53.685 52.3503 53.7228 52.3574 53.7605 52.3549H54.1985V53.2233H53.6714C53.5173 53.2406 53.3613 53.2226 53.2152 53.1705C53.0691 53.1185 52.9369 53.0337 52.8285 52.9228H52.8387Z" fill="#191D28"/>
<path d="M56.5581 52.9213C56.4101 52.7847 56.295 52.6164 56.2213 52.4289C56.1477 52.2415 56.1174 52.0398 56.1328 51.839C56.1188 51.6488 56.1464 51.4577 56.2137 51.2792C56.2809 51.1006 56.3863 50.9389 56.5224 50.8052C56.8605 50.551 57.2797 50.4288 57.7014 50.4614H59.0205L59.0842 51.1948H57.704C57.512 51.1804 57.3216 51.2375 57.1692 51.3552C57.1069 51.4185 57.059 51.4945 57.0287 51.578C56.9984 51.6615 56.9864 51.7505 56.9935 51.839C56.9861 51.939 57.0037 52.0393 57.0446 52.1309C57.0854 52.2224 57.1484 52.3024 57.2278 52.3636C57.443 52.4931 57.6929 52.5527 57.9434 52.5342C58.2079 52.5472 58.4724 52.5092 58.7226 52.4222C58.7967 52.3988 58.8614 52.3524 58.9072 52.2896C58.9531 52.2268 58.9776 52.151 58.9773 52.0733L59.0715 52.7252C58.9954 52.8488 58.8938 52.9548 58.7735 53.0359C58.6489 53.1188 58.5112 53.1799 58.3661 53.2167C58.1945 53.2593 58.0183 53.2799 57.8415 53.2778C57.3853 53.3111 56.9317 53.1851 56.5581 52.9213ZM58.9773 50.2653C58.984 50.1359 58.965 50.0065 58.9212 49.8845C58.8775 49.7625 58.81 49.6505 58.7226 49.5548C58.6309 49.467 58.5221 49.399 58.4029 49.3552C58.2837 49.3113 58.1567 49.2926 58.03 49.3002C57.8451 49.3001 57.6613 49.3284 57.485 49.3842C57.316 49.4366 57.1568 49.5166 57.0139 49.621L56.3467 49.1652C56.5338 48.9453 56.7727 48.7755 57.0419 48.6712C57.3482 48.5501 57.6751 48.4895 58.0045 48.4929C58.3451 48.4841 58.6832 48.5538 58.9925 48.6966C59.2573 48.8242 59.4762 49.0306 59.619 49.2874C59.7685 49.5757 59.8421 49.8974 59.8329 50.222V53.2065H58.9773V50.2653Z" fill="#191D28"/>
</svg>
