<svg width="40" height="40" viewBox="0 0 40 40" fill="none" xmlns="http://www.w3.org/2000/svg">
<circle cx="20" cy="20" r="20" fill="#EAEBEF"/>
<mask id="mask0_3315_58428" style="mask-type:alpha" maskUnits="userSpaceOnUse" x="0" y="0" width="40" height="40">
<circle cx="20" cy="20" r="20" fill="#F4F5F9"/>
</mask>
<g mask="url(#mask0_3315_58428)">
<path d="M25.6569 11.1439C28.781 14.2681 28.781 19.3334 25.6569 22.4576C22.5327 25.5818 17.4673 25.5818 14.3431 22.4576C11.219 19.3334 11.219 14.2681 14.3431 11.1439C17.4673 8.01973 22.5327 8.01973 25.6569 11.1439Z" fill="#9EA5B3" stroke="#9EA5B3" stroke-width="2" stroke-linecap="round" stroke-linejoin="round"/>
<path d="M19.9999 28.8008C32.9535 28.8008 45.5999 36.2839 45.5999 47.7921V51.5964C45.5999 53.6964 44.3256 55.4008 42.7555 55.4008H-2.75565C-4.32579 55.4008 -5.6001 53.6964 -5.6001 51.5964V47.7921C-5.6001 36.2801 7.0463 28.8008 19.9999 28.8008Z" fill="#9EA5B3" stroke="#9EA5B3" stroke-width="2" stroke-linecap="round" stroke-linejoin="round"/>
</g>
</svg>
